<?xml version="1.0" standalone="no"?>
<!DOCTYPE svg PUBLIC "-//W3C//DTD SVG 1.1//EN" "http://www.w3.org/Graphics/SVG/1.1/DTD/svg11.dtd" >
<!--
2013-9-30: Created.
-->
<svg>
<metadata>
Created by iconfont
</metadata>
<defs>

<font id="iconfont" horiz-adv-x="1024" >
  <font-face
    font-family="iconfont"
    font-weight="500"
    font-stretch="normal"
    units-per-em="1024"
    ascent="896"
    descent="-128"
  />
    <missing-glyph />
    
    <glyph glyph-name="contract_approved_fill" unicode="&#59153;" d="M513.94 154.31c11.01 95.02 85.96 174.08 180.29 189.96 34.86 5.87 68.41 3.34 99.15-5.75 23.98-7.09 47.9 10.87 47.9 35.88V767.97c0 30.32-24.58 54.89-54.89 54.89H164.73c-30.31 0-54.89-24.57-54.89-54.89v-767.93c0-30.31 24.58-54.89 54.89-54.89H520.2c29.99 0 48.29 33.64 31.19 58.27-29.13 41.97-43.98 94.59-37.45 150.89zM256.27 655.09c0 11.94 9.68 21.62 21.62 21.62H673.5c11.94 0 21.62-9.68 21.62-21.62v-29.9c0-11.94-9.68-21.62-21.62-21.62H277.89c-11.94 0-21.62 9.68-21.62 21.62v29.9z m0-146.28c0 11.94 9.68 21.62 21.62 21.62h322.47c11.94 0 21.62-9.68 21.62-21.62v-29.9c0-11.94-9.68-21.62-21.62-21.62H277.89c-11.94 0-21.62 9.68-21.62 21.62v29.9zM475.7 332.62c0-11.94-9.68-21.62-21.62-21.62H277.89c-11.94 0-21.62 9.68-21.62 21.62v29.9c0 11.94 9.68 21.62 21.62 21.62h176.19c11.94 0 21.62-9.68 21.62-21.62v-29.9zM731.7 311c-100.99 0-182.86-81.87-182.86-182.86s81.87-182.86 182.86-182.86 182.86 81.87 182.86 182.86S832.69 311 731.7 311z m45.2-252.34l-37.88 19.9a15.726 15.726 0 0 1-14.64 0l-37.88-19.9 7.23 42.11c0.88 5.11-0.82 10.33-4.54 13.95l-30.63 29.83 42.35 6.15c5.13 0.74 9.56 3.96 11.86 8.61l18.94 38.33 18.94-38.33c2.29-4.65 6.73-7.86 11.85-8.61l42.35-6.15-30.63-29.83a15.761 15.761 0 0 1-4.54-13.95l7.22-42.11z"  horiz-adv-x="1024" />

    
    <glyph glyph-name="contract_approval_fill" unicode="&#59154;" d="M876.85 311.16H740.33c-30.27 0-57.6 18.1-69.42 45.96l-46.72 110.13c-6.78 15.99-2.43 34.31 10.49 45.92 46.15 41.44 71.18 105.85 56.48 175.45-14.54 68.9-70.28 124.58-139.21 138.97-118.2 24.68-222.26-64.86-222.26-178.71 0-54.81 24.31-103.7 62.58-137.12 13.32-11.63 18.03-30.21 11.12-46.49l-45.88-108.15c-11.82-27.86-39.16-45.96-69.42-45.96H147.14c-20.48 0-37.08-16.6-37.08-37.08v-145.27c0-20.48 16.6-37.08 37.08-37.08h729.71c20.48 0 37.08 16.6 37.08 37.08V274.07c0.01 20.48-16.59 37.09-37.08 37.09zM859.49 18.28H165.11c-10.21 0-18.48-8.27-18.48-18.48v-36.18c0-10.21 8.27-18.48 18.48-18.48h694.38c10.21 0 18.48 8.27 18.48 18.48V-0.2c0 10.2-8.27 18.48-18.48 18.48z"  horiz-adv-x="1024" />

    
    <glyph glyph-name="contract_fill" unicode="&#59155;" d="M822.57 822.86H201.45c-30.46 0-55.15-24.69-55.15-55.15v-767.4c0-30.46 24.69-55.16 55.15-55.16h433.92a55.18 55.18 0 0 1 39.1 16.25l187.2 188.15a55.159 55.159 0 0 1 16.06 38.9V767.7c0 30.47-24.7 55.16-55.16 55.16zM292.58 656.52c0 11.08 8.98 20.06 20.06 20.06h398.75c11.08 0 20.06-8.98 20.06-20.06v-33.03c0-11.08-8.98-20.06-20.06-20.06H312.64c-11.08 0-20.06 8.98-20.06 20.06v33.03z m0-146.29c0 11.08 8.98 20.06 20.06 20.06h325.6c11.08 0 20.06-8.98 20.06-20.06v-33.03c0-11.08-8.98-20.06-20.06-20.06h-325.6c-11.08 0-20.06 8.98-20.06 20.06v33.03z m219.43-179.31c0-11.08-8.98-20.06-20.06-20.06H312.64c-11.08 0-20.06 8.98-20.06 20.06v33.03c0 11.08 8.98 20.06 20.06 20.06h179.32c11.08 0 20.06-8.98 20.06-20.06v-33.03zM801.4 194.35L656.99 49.94c-13.57-13.57-36.78-3.96-36.78 15.23V209.58c0 11.9 9.65 21.54 21.54 21.54h144.41c19.2 0.01 28.81-23.2 15.24-36.77z"  horiz-adv-x="1024" />

    
    <glyph glyph-name="contract_management_fill" unicode="&#59156;" d="M531.01 17.68a37.025 37.025 0 0 0-19.18 32.43v197.8c0 13.5 7.35 25.93 19.18 32.43L713.6 380.77a37.017 37.017 0 0 0 35.68 0l69.98-38.49c9.85-5.42 21.9 1.71 21.9 12.95V767.55c0 30.4-24.64 55.04-55.04 55.04H164.77c-30.4 0-55.04-24.64-55.04-55.04v-767.64c0-30.4 24.64-55.04 55.04-55.04h441.1c15.28 0 20.51 20.36 7.12 27.72l-81.98 45.09z m-275 637.33c0 11.91 9.65 21.56 21.56 21.56h395.74c11.91 0 21.56-9.65 21.56-21.56v-30.03c0-11.91-9.65-21.56-21.56-21.56H277.57c-11.91 0-21.56 9.65-21.56 21.56v30.03z m0-146.28c0 11.91 9.65 21.56 21.56 21.56h322.6c11.91 0 21.56-9.65 21.56-21.56v-30.03c0-11.91-9.65-21.56-21.56-21.56h-322.6c-11.91 0-21.56 9.65-21.56 21.56v30.03z m219.43-176.31c0-11.91-9.65-21.56-21.56-21.56H277.57c-11.91 0-21.56 9.65-21.56 21.56v30.03c0 11.91 9.65 21.56 21.56 21.56h176.31c11.91 0 21.56-9.65 21.56-21.56v-30.03zM895.12 260.13l-145.84 80.21a36.998 36.998 0 0 1-35.67 0l-145.84-80.21a37.002 37.002 0 0 1-19.18-32.43v-157.37c0-13.5 7.35-25.93 19.18-32.43l145.84-80.21a36.998 36.998 0 0 1 35.67 0l145.84 80.21a37.002 37.002 0 0 1 19.18 32.43V227.7c0 13.5-7.35 25.93-19.18 32.43zM731.44 94.16c-30.3 0-54.86 24.56-54.86 54.86s24.56 54.86 54.86 54.86 54.86-24.56 54.86-54.86-24.56-54.86-54.86-54.86z"  horiz-adv-x="1024" />

    
    <glyph glyph-name="contract_filed_fill" unicode="&#59157;" d="M513.11 154.25c11.04 95.07 86.06 174.15 180.44 190.02 43.84 7.38 85.6 1.48 122.33-14.05 11.89-5.03 24.92 3.84 24.92 16.75V767.85c0 30.38-24.63 55.01-55.01 55.01h-621.4c-30.38 0-55.01-24.63-55.01-55.01v-767.7c0-30.38 24.63-55.01 55.01-55.01h395.57c16.05 0 24.19 19.14 13.04 30.7-43.57 45.21-67.94 109.03-59.89 178.41zM255.67 655.01c0 11.91 9.65 21.56 21.56 21.56h395.73c11.91 0 21.56-9.65 21.56-21.56v-30.02c0-11.91-9.65-21.56-21.56-21.56H277.23c-11.91 0-21.56 9.65-21.56 21.56v30.02z m0-146.28c0 11.91 9.65 21.56 21.56 21.56h322.59c11.91 0 21.56-9.65 21.56-21.56v-30.02c0-11.91-9.65-21.56-21.56-21.56H277.23c-11.91 0-21.56 9.65-21.56 21.56v30.02z m219.42-176.31c0-11.91-9.65-21.56-21.56-21.56h-176.3c-11.91 0-21.56 9.65-21.56 21.56v30.02c0 11.91 9.65 21.56 21.56 21.56h176.31c11.91 0 21.56-9.65 21.56-21.56v-30.02zM731.02 310.86c-100.99 0-182.86-81.87-182.86-182.86s81.87-182.86 182.86-182.86c100.99 0 182.86 81.87 182.86 182.86s-81.87 182.86-182.86 182.86z m85.1-163.15l-83.66-96.24c-5.35-6.16-14.71-6.74-20.78-1.3l-62.08 55.62c-6.01 5.39-6.52 14.63-1.13 20.64l17.1 19.09c5.39 6.01 14.62 6.52 20.64 1.13l31.67-28.37 56.85 65.43c5.3 6.09 14.53 6.74 20.62 1.44l19.33-16.82c6.09-5.31 6.74-14.54 1.44-20.62z"  horiz-adv-x="1024" />

    
    <glyph glyph-name="contract_notfiled_fill" unicode="&#59158;" d="M514.5 154.25c11.04 95.07 86.06 174.15 180.44 190.02 43.84 7.38 85.6 1.48 122.33-14.05 11.89-5.03 24.92 3.84 24.92 16.75V767.85c0 30.38-24.63 55.01-55.01 55.01h-621.4c-30.38 0-55.01-24.63-55.01-55.01v-767.7c0-30.38 24.63-55.01 55.01-55.01h395.57c16.06 0 24.19 19.14 13.05 30.7-43.59 45.21-67.95 109.03-59.9 178.41zM257.06 655.01c0 11.91 9.65 21.56 21.56 21.56h395.73c11.91 0 21.56-9.65 21.56-21.56v-30.02c0-11.91-9.65-21.56-21.56-21.56H278.62c-11.91 0-21.56 9.65-21.56 21.56v30.02z m0-146.28c0 11.91 9.65 21.56 21.56 21.56h322.59c11.91 0 21.56-9.65 21.56-21.56v-30.02c0-11.91-9.65-21.56-21.56-21.56H278.62c-11.91 0-21.56 9.65-21.56 21.56v30.02z m219.42-176.31c0-11.91-9.65-21.56-21.56-21.56h-176.3c-11.91 0-21.56 9.65-21.56 21.56v30.02c0 11.91 9.65 21.56 21.56 21.56h176.31c11.91 0 21.56-9.65 21.56-21.56v-30.02zM732.41 310.86c-100.99 0-182.86-81.87-182.86-182.86s81.87-182.86 182.86-182.86S915.26 27.01 915.26 128 833.4 310.86 732.41 310.86z m73.42-222.27c5.73-5.73 5.73-15.02 0-20.75l-18.03-18.03c-5.73-5.73-15.02-5.73-20.75 0l-35.88 35.88-35.88-35.88c-5.73-5.73-15.02-5.73-20.75 0l-18.03 18.03c-5.73 5.73-5.73 15.02 0 20.75l35.88 35.88-35.88 35.88c-5.73 5.73-5.73 15.02 0 20.75l18.03 18.03c5.73 5.73 15.02 5.73 20.75 0l35.88-35.88 35.88 35.88c5.73 5.73 15.02 5.73 20.75 0l18.03-18.03c5.73-5.73 5.73-15.02 0-20.75l-35.88-35.88 35.88-35.88z"  horiz-adv-x="1024" />

    
    <glyph glyph-name="contract_sign_fill" unicode="&#59159;" d="M818.87 474.99c12.99 3.32 21.94 15.1 21.94 28.51V767.63c0 30.26-24.53 54.79-54.79 54.79H164.17c-30.26 0-54.79-24.53-54.79-54.79v-768.14c0-30.26 24.53-54.79 54.79-54.79h208.92c14.46 0 26.82 10.39 29.31 24.63l16.55 94.51c5.67 32.4 21.19 62.25 44.45 85.51l286.71 286.71c19.74 19.74 43.57 32.5 68.76 38.93zM475.09 332.54c0-11.98-9.71-21.69-21.69-21.69H277.35c-11.98 0-21.69 9.71-21.69 21.69v29.77c0 11.98 9.71 21.69 21.69 21.69h176.06c11.98 0 21.69-9.71 21.69-21.69v-29.77z m146.29 146.29c0-11.98-9.71-21.69-21.69-21.69H277.35c-11.98 0-21.69 9.71-21.69 21.69V508.6c0 11.98 9.71 21.69 21.69 21.69h322.34c11.98 0 21.69-9.71 21.69-21.69v-29.77z m73.14 146.28c0-11.98-9.71-21.69-21.69-21.69H277.35c-11.98 0-21.69 9.71-21.69 21.69v29.77c0 11.98 9.71 21.69 21.69 21.69h395.49c11.98 0 21.69-9.71 21.69-21.69v-29.77zM887.06 358.05c-21.42 21.42-49.5 32.13-77.58 32.13s-56.16-10.71-77.58-32.13L524.95 151.1a115.405 115.405 0 0 1-32.08-61.72l-19.99-114.14c-0.06-16.81 13.52-30.48 30.33-30.54l114.73 19.32c23.66 3.98 45.5 15.24 62.46 32.21l206.65 206.65c42.85 42.85 42.85 112.32 0.01 155.17z m-281.27-321.9l-49.45-8.33 8.57 48.94c0.77 4.42 2.26 8.6 4.32 12.48l48.96-48.96a42.322 42.322 0 0 0-12.4-4.13z m229.55 218.46l-2.89-2.89-51.72 51.72 2.89 2.89c9.32 9.32 20.2 10.71 25.86 10.71s16.54-1.39 25.86-10.71c14.26-14.26 14.26-37.46 0-51.72z"  horiz-adv-x="1024" />

    
    <glyph glyph-name="contract_view_fill" unicode="&#59160;" d="M515.28 153.6c4.71 105.66 95.28 192.72 201.04 193.52 33.64 0.25 65.33-7.77 93.3-22.07 14.5-7.42 31.66 4.11 31.66 20.4V767.33c0 30.37-24.62 54.99-54.99 54.99H164.84c-30.37 0-54.99-24.62-54.99-54.99v-767.74c0-30.37 24.62-54.99 54.99-54.99h414.69c21.67 0 30.18 27 13.14 40.38-49.49 38.82-80.44 100.13-77.39 168.62zM255.67 654.56c0 11.99 9.72 21.71 21.71 21.71h395.43c11.99 0 21.71-9.72 21.71-21.71v-29.72c0-11.99-9.72-21.71-21.71-21.71H277.38c-11.99 0-21.71 9.72-21.71 21.71v29.72z m0-146.28c0 11.99 9.72 21.71 21.71 21.71h322.29c11.99 0 21.71-9.72 21.71-21.71v-29.72c0-11.99-9.72-21.71-21.71-21.71H277.38c-11.99 0-21.71 9.72-21.71 21.71v29.72z m219.42-176.01c0-11.99-9.72-21.71-21.71-21.71h-176c-11.99 0-21.71 9.72-21.71 21.71v29.72c0 11.99 9.72 21.71 21.71 21.71h176c11.99 0 21.71-9.72 21.71-21.71v-29.72zM898.88 10.01l-44.34 44.34c17.6 26.2 27.91 57.71 27.91 91.64 0 90.89-73.68 164.57-164.57 164.57S553.3 236.88 553.3 145.99s73.68-164.57 164.57-164.57c30.41 0 58.53 8.82 82.97 23.2l46.32-46.32c6.54-6.54 17.15-6.54 23.69 0l28.02 28.02c6.55 6.54 6.55 17.14 0.01 23.69z m-181 44.55c-50.41 0-91.43 41.02-91.43 91.43 0 50.41 41.02 91.43 91.43 91.43 50.41 0 91.43-41.02 91.43-91.43-0.01-50.41-41.02-91.43-91.43-91.43z"  horiz-adv-x="1024" />

    
    <glyph glyph-name="contract_pending_fill" unicode="&#59161;" d="M513.93 154.31c11.01 95.02 85.96 174.08 180.29 189.96 34.86 5.87 68.41 3.34 99.15-5.75 23.98-7.09 47.9 10.87 47.9 35.88V767.97c0 30.32-24.58 54.89-54.89 54.89H164.73c-30.31 0-54.89-24.57-54.89-54.89v-767.93c0-30.31 24.58-54.89 54.89-54.89H520.2c29.99 0 48.29 33.64 31.19 58.27-29.13 41.97-43.98 94.59-37.46 150.89zM256.27 655.09c0 11.94 9.68 21.62 21.62 21.62H673.5c11.94 0 21.62-9.68 21.62-21.62v-29.9c0-11.94-9.68-21.62-21.62-21.62H277.89c-11.94 0-21.62 9.68-21.62 21.62v29.9z m0-146.28c0 11.94 9.68 21.62 21.62 21.62h322.47c11.94 0 21.62-9.68 21.62-21.62v-29.9c0-11.94-9.68-21.62-21.62-21.62H277.89c-11.94 0-21.62 9.68-21.62 21.62v29.9zM475.7 332.62c0-11.94-9.68-21.62-21.62-21.62H277.89c-11.94 0-21.62 9.68-21.62 21.62v29.9c0 11.94 9.68 21.62 21.62 21.62h176.19c11.94 0 21.62-9.68 21.62-21.62v-29.9zM731.56 310.86c-100.99 0-182.86-81.87-182.86-182.86s81.87-182.86 182.86-182.86S914.41 27.01 914.41 128s-81.86 182.86-182.85 182.86z m81.95-246.12l-18.09-18.23c-5.67-5.72-14.91-5.75-20.63-0.08l-70.67 70.14V202.7c0 8.06 6.53 14.58 14.59 14.58h25.68c8.06 0 14.59-6.53 14.59-14.58v-63.27l54.45-54.06c5.72-5.68 5.76-14.91 0.08-20.63z"  horiz-adv-x="1024" />

    
    <glyph glyph-name="customer_class_fill" unicode="&#59162;" d="M511.3 603.4m-182.9 0a182.9 182.9 0 1 1 365.8 0 182.9 182.9 0 1 1-365.8 0ZM757.6 257.4L658.4 205c-15.6-8.3-15.6-30.7 0-38.9l99.2-52.4c6.4-3.4 14.1-3.4 20.6 0l99.2 52.4c15.6 8.3 15.6 30.7 0 38.9l-99.2 52.4c-6.5 3.4-14.2 3.4-20.6 0zM881.7 143.7c-1.1 0-3.3-1.1-5.1-2.2l-90-54.1c-11.7-6.9-26-6.9-37.7 0l-90.3 54.1c-1 0.7-3.5 2.2-5.1 2.2-4 0-7.3-3.3-7.3-7.3v-18.3c0-4 2.6-7.3 5.9-8.8l96.9-58.5c11.7-6.9 26.3-6.9 37.7 0l96.9 58.5c3.3 1.5 5.5 4.8 5.5 8.8v18.3c0 4-3.3 7.3-7.4 7.3zM881.7 80c-1.1 0-3.3-1.1-5.1-2.2l-90-54.1c-11.7-6.9-26-6.9-37.7 0l-90.3 54.1c-1 0.7-3.5 2.2-5.1 2.2-4 0-7.3-3.3-7.3-7.3v-18.3c0-4 2.6-7.3 5.9-8.8l96.9-58.5c11.7-6.9 26.3-6.9 37.7 0l96.9 58.5c3.3 1.5 5.5 4.8 5.5 8.8v18.3c0 4-3.3 7.3-7.4 7.3zM768 296.6c7.3 0 14.3-1.5 20.8-4 0.4 0 0.7-0.4 1.1-0.4 2.2-1.1 4.8-1.5 7.3-1.5 9.9 0 18.3 8 18.3 18.3 0 4-1.1 7.3-3.3 10.2-0.7 1.1-1.5 1.8-2.2 2.6-39.1 43.9-87.4 79.4-142.6 102.8-11.7 5.1-24.9 2.6-35.8-4.4-34.4-23-75.7-36.2-120.3-36.2-44.6 0-86.3 13.5-121.1 36.6-10.6 6.9-23.8 9.5-35.8 4.8-132.8-56-229.3-180.7-244.3-329.9-2.2-21.6 15-40.6 36.9-40.6h426.4c20.1 0 36.2 16.1 36.2 36.2 0.4 36.6 0.4 88.5 0.4 94.4 0 21.9 12.1 41.7 31.5 51.9l99.1 52.3c8.4 4.3 17.9 6.9 27.4 6.9z"  horiz-adv-x="1024" />

    
    <glyph glyph-name="contract_termination_fill" unicode="&#59163;" d="M513.95 154.31c11.01 95.02 85.96 174.08 180.29 189.96 34.86 5.87 68.41 3.34 99.15-5.75 23.98-7.09 47.9 10.87 47.9 35.88V767.97c0 30.32-24.58 54.89-54.89 54.89H164.74c-30.31 0-54.89-24.57-54.89-54.89v-767.93c0-30.31 24.58-54.89 54.89-54.89h355.47c29.99 0 48.29 33.64 31.19 58.27-29.13 41.97-43.98 94.59-37.45 150.89zM256.28 655.09c0 11.94 9.68 21.62 21.62 21.62h395.61c11.94 0 21.62-9.68 21.62-21.62v-29.9c0-11.94-9.68-21.62-21.62-21.62H277.9c-11.94 0-21.62 9.68-21.62 21.62v29.9z m0-146.28c0 11.94 9.68 21.62 21.62 21.62h322.47c11.94 0 21.62-9.68 21.62-21.62v-29.9c0-11.94-9.68-21.62-21.62-21.62H277.9c-11.94 0-21.62 9.68-21.62 21.62v29.9z m219.43-176.19c0-11.94-9.68-21.62-21.62-21.62H277.9c-11.94 0-21.62 9.68-21.62 21.62v29.9c0 11.94 9.68 21.62 21.62 21.62h176.19c11.94 0 21.62-9.68 21.62-21.62v-29.9zM731.57 310.86c-100.99 0-182.86-81.87-182.86-182.86s81.87-182.86 182.86-182.86c100.99 0 182.86 81.87 182.86 182.86s-81.87 182.86-182.86 182.86z m72.89-201.13c0-5.06-4.1-9.15-9.15-9.15H667.33c-5.06 0-9.15 4.1-9.15 9.15v36.55c0 5.06 4.1 9.15 9.15 9.15h127.98c5.06 0 9.15-4.1 9.15-9.15v-36.55z"  horiz-adv-x="1024" />

    
    <glyph glyph-name="customer_management_fill" unicode="&#59164;" d="M895.5 265.9l-128 71.1c-11 6.1-24.5 6.1-35.5 0l-128-71.1c-11.6-6.4-18.8-18.7-18.8-32v-139.8c0-13.3 7.2-25.5 18.8-32L732-9c11-6.1 24.5-6.1 35.5 0l128 71.1c11.6 6.4 18.8 18.7 18.8 32V234c0 13.3-7.2 25.5-18.8 31.9zM749.7 109.2c-30.3 0-54.9 24.6-54.9 54.9s24.6 54.9 54.9 54.9 54.9-24.6 54.9-54.9-24.6-54.9-54.9-54.9zM709.1 405c-13.1 7.4-26.6 14.1-40.5 20-11.6 4.9-24.7 2.4-35.1-4.6-34.8-23.2-76.5-36.7-121.4-36.7-44.6 0-86 13.4-120.6 36.2-10.5 7-23.7 9.4-35.3 4.5C224.1 368.3 128 244 112.9 95.4c-2.2-21.8 14.6-41 36.5-41h362.8c20.3 0 36.5 16.4 36.5 36.7V255.7c0 13.1 7.1 25.2 18.6 31.6L708.8 366c15.2 8.5 15.4 30.4 0.3 39zM512 603.1m-182.9 0a182.9 182.9 0 1 1 365.8 0 182.9 182.9 0 1 1-365.8 0Z"  horiz-adv-x="1024" />

    
    <glyph glyph-name="customer_management_number_fill" unicode="&#59165;" d="M879.4 822.7H146.5c-20.2 0-36.6-16.4-36.6-36.6v-73.3c0-20.2 16.4-36.6 36.6-36.6h732.9c20.2 0 36.6 16.4 36.6 36.6v73.3c0 20.2-16.4 36.6-36.6 36.6zM879.5 639.4H146.4c-20.1 0-36.5-17.2-36.5-38.5v-619.1c0-21.2 16.3-38.5 36.5-38.5h733.2c20.1 0 36.5 17.2 36.5 38.5V601c-0.1 21.2-16.4 38.4-36.6 38.4z m-36.8-490.9c0-12.1-9.8-21.9-21.9-21.9H366.4v-51.4c0-12.1-9.8-21.9-21.9-21.9H315c-12.1 0-21.9 9.8-21.9 21.9v51.4h-88c-12.1 0-21.9 9.8-21.9 21.9v29.4c0 12.1 9.8 21.9 21.9 21.9h88v51.4c0 12.1 9.8 21.9 21.9 21.9h29.4c12.1 0 21.9-9.8 21.9-21.9v-51.4h454.4c12.1 0 21.9-9.8 21.9-21.9v-29.4z m0 256.4c0-12.1-9.8-21.9-21.9-21.9h-88.1v-51.4c0-12.1-9.8-21.9-21.9-21.9h-29.5c-12.1 0-21.9 9.8-21.9 21.9V383H205.1c-12.1 0-21.9 9.8-21.9 21.9v29.5c0 12.1 9.8 21.9 21.9 21.9h454.5v51.4c0 12.1 9.8 21.9 21.9 21.9H711c12.1 0 21.9-9.8 21.9-21.9v-51.4H821c12.1 0 21.9-9.8 21.9-21.9v-29.5z"  horiz-adv-x="1024" />

    
    <glyph glyph-name="customer_management_reconciliation_fill" unicode="&#59166;" d="M131.5 566.9h102.9c12 0 21.8 9.7 21.8 21.8v29.6c0 12-9.7 21.8-21.8 21.8H131.5c-12 0-21.8-9.8-21.8-21.8v-29.5c0-12.2 9.8-21.9 21.8-21.9zM895.5 229.4l-128 71.1c-11 6.1-24.5 6.1-35.5 0l-128-71.1c-11.6-6.4-18.8-18.7-18.8-32v-139.8c0-13.3 7.2-25.5 18.8-32l128-71.1c11-6.1 24.5-6.1 35.5 0l128 71.1c11.6 6.4 18.8 18.7 18.8 32V197.4c0 13.3-7.2 25.5-18.8 32zM749.7 72.6c-30.3 0-54.9 24.6-54.9 54.9s24.6 54.9 54.9 54.9 54.9-24.6 54.9-54.9-24.6-54.9-54.9-54.9zM234.4 128c12 0 21.8 9.7 21.8 21.8v29.6c0 12-9.7 21.8-21.8 21.8H131.5c-12 0-21.8-9.8-21.8-21.8v-29.6c0-12 9.8-21.8 21.8-21.8h102.9zM600.9-14.6l-14.6 8.4c-23.4 12.8-37.7 37.3-37.7 63.6V197.5c0 26.3 14.3 50.8 37.7 64l128 70.9c10.6 6.2 23 9.1 35.5 9.1 12.4 0 24.5-2.9 35.5-9.1l60-33.3c14.6-8 32.5 2.6 32.5 19V786.3c0 20.1-16.5 36.6-36.6 36.6H182.9c-20.1 0-36.6-16.5-36.6-36.6v-73.1c0-20.1 16.5-36.6 36.6-36.6H256c20.1 0 36.6-16.5 36.6-36.6v-72.8c0-20.5-16.5-36.9-36.6-36.9h-73.1c-20.1 0-36.6-16.5-36.6-36.6v-219.4c0-20.1 16.5-36.6 36.6-36.6H256c20.1 0 36.6-16.5 36.6-36.6v-72.8c0-20.5-16.5-36.9-36.6-36.9h-73.1c-20.1 0-36.6-16.5-36.6-36.6v-73.1c0-20.1 16.5-36.6 36.6-36.6h405.9c12.1 0 21.9 9.9 21.9 21.9 0 7.8-4 14.3-9.8 18.4zM365.7 654.8c0 12 9.8 21.8 21.8 21.8h358.7c12 0 21.8-9.8 21.8-21.8v-29.5c0-12-9.8-21.8-21.8-21.8H387.5c-12 0-21.8 9.8-21.8 21.8v29.5z m0-182.5c0 12 9.8 21.8 21.8 21.8h358.7c12 0 21.8-9.8 21.8-21.8v-29.5c0-12-9.8-21.8-21.8-21.8H387.5c-12 0-21.8 9.8-21.8 21.8v29.5zM512 259.5c0-12-9.8-21.8-21.8-21.8H387.5c-12 0-21.8 9.8-21.8 21.8V289c0 12 9.8 21.8 21.8 21.8h102.7c12 0 21.8-9.8 21.8-21.8v-29.5z"  horiz-adv-x="1024" />

    
    <glyph glyph-name="customer_list_fill" unicode="&#59167;" d="M877.7 274.3H442.1c-21.6 0-42.1 9.5-56.3 26-13.5 16.5-19.7 37.7-16.1 58.5 13.9 83.4 62.9 156.5 135.3 201.1 2.2 1.5 4.8 2.6 7.3 3.7 6.6 2.9 11.3 9.5 11.3 16.8 0 1.8-0.4 3.7-0.7 5.1-0.4 0.7-0.4 1.5-0.7 2.2-6.6 16.1-10.2 33.6-10.2 52.3 0 42.8 18.7 81.6 47.9 108.3 15 13.5 5.9 38-14.3 38H146.3c-20.1 0-36.6-16.5-36.6-36.6v-731.4c0-20.1 16.5-36.6 36.6-36.6h731.4c20.1 0 36.6 16.5 36.6 36.6V237.7c0 20.1-16.5 36.6-36.6 36.6zM182.9 618.1c0 12.1 9.8 21.9 21.9 21.9h175.6c12.1 0 21.9-9.8 21.9-21.9v-29.4c0-12.1-9.8-21.9-21.9-21.9H204.8c-12.1 0-21.9 9.8-21.9 21.9v29.4z m0-146.3c0 12.1 9.8 21.9 21.9 21.9h126.9c12.1 0 21.9-9.8 21.9-21.9v-29.4c0-12.1-9.8-21.9-21.9-21.9H204.8c-12.1 0-21.9 9.8-21.9 21.9v29.4z m658.2-321.9c0-12.1-9.8-21.9-21.9-21.9H204.8c-12.1 0-21.9 9.8-21.9 21.9v29.4c0 12.1 9.8 21.9 21.9 21.9h614.5c12.1 0 21.9-9.8 21.9-21.9v-29.4zM658.3 640m-109.7 0a109.7 109.7 0 1 1 219.4 0 109.7 109.7 0 1 1-219.4 0ZM658.3 493.7c-34.8 0-66.4 12.4-91.4 32.7-12.2 9.9-29.3 10.5-42.7 2.2-61.7-38-106.1-101.4-118.5-175.7-3.7-22.1 14.1-42.1 36.5-42.1h432.1c22.4 0 40.2 20 36.5 42.1-12.3 74.3-56.7 137.7-118.5 175.7-13.4 8.2-30.5 7.7-42.7-2.2-24.9-20.3-56.6-32.7-91.3-32.7z"  horiz-adv-x="1024" />

    
    <glyph glyph-name="customer_luodigongsi_fill" unicode="&#59168;" d="M892.5 31.8h-14.8V336.3c0 14.9-9.1 28.3-22.9 33.9l-203 81.2c-14.4 5.8-30.1-4.8-30.1-20.4v-399.2h-36.6v769c0 16.3-17.2 26.9-31.8 19.6L166.2 626.9c-12.2-6.1-19.9-18.5-19.9-32.1v-562.9h-14.8c-12 0-21.8-9.7-21.8-21.8v-29.6c0-12 9.7-21.8 21.8-21.8H892.6c12 0 21.8 9.7 21.8 21.8v29.6c-0.1 12-9.9 21.7-21.9 21.7zM694.9 192.9c0 12 9.7 21.8 21.8 21.8h66.2c12 0 21.8-9.7 21.8-21.8v-29.6c0-12-9.7-21.8-21.8-21.8h-66.2c-12 0-21.8 9.7-21.8 21.8v29.6zM219.4 485.5c0 12 9.7 21.8 21.8 21.8h249c12 0 21.8-9.7 21.8-21.8v-29.6c0-12-9.7-21.8-21.8-21.8h-249c-12 0-21.8 9.7-21.8 21.8v29.6z m0-146.3c0 12 9.7 21.8 21.8 21.8h249c12 0 21.8-9.7 21.8-21.8v-29.6c0-12-9.7-21.8-21.8-21.8h-249c-12 0-21.8 9.7-21.8 21.8v29.6z m0-146.3c0 12 9.7 21.8 21.8 21.8h249c12 0 21.8-9.7 21.8-21.8v-29.6c0-12-9.7-21.8-21.8-21.8h-249c-12 0-21.8 9.7-21.8 21.8v29.6z"  horiz-adv-x="1024" />

    
    <glyph glyph-name="customer_management_sales_fill" unicode="&#59169;" d="M859.4 786.3H164.6c-30.4 0-54.9-24.5-54.9-54.9v-694.9c0-30.4 24.5-54.9 54.9-54.9h438.5c10.2 0 18.3 8 18.3 18.3 0 6.2-3.3 11.7-8 15-1.1 0.7-2.2 1.5-3.3 1.8l-42.8 23.8c-11.3 6.6-18.7 18.7-18.7 32.2V255.3c0 13.5 7.3 25.6 18.7 32.2l164.6 91.4c11.3 6.2 24.5 6.2 35.8 0l114.5-63.6c14.6-8 32.2 2.2 32.2 18.7V731.4c-0.1 30.4-24.6 54.9-55 54.9zM475 149.8c0-12-8.5-21.8-19-21.8H238.5c-10.5 0-19 9.8-19 21.8v29.5c0 12 8.5 21.8 19 21.8H456c10.5 0 19-9.8 19-21.8v-29.5z m293 380.5c0-20.2-16.4-36.6-36.6-36.6-20.2 0-36.6 16.4-36.6 36.6v21.4L537.9 394.8c-12.4-12.4-31.8-14.3-46.3-4.6l-84.7 56.4L297.3 337c-8.5-8.5-22.3-8.5-30.8 0l-20.9 20.9c-8.5 8.5-8.5 22.3 0 30.8l130.8 130.8c12.4 12.4 31.8 14.3 46.3 4.6l84.7-56.4 135.8 135.8h-21.4c-20.2 0-36.6 16.4-36.6 36.6s16.4 36.6 36.6 36.6h87.9c32.2 0 58.4-26.1 58.4-58.4v-88zM895.5 265.9l-128 71.1c-11 6.1-24.5 6.1-35.5 0l-128-71.1c-11.6-6.4-18.8-18.7-18.8-32v-139.8c0-13.3 7.2-25.5 18.8-32L732-9c11-6.1 24.5-6.1 35.5 0l128 71.1c11.6 6.4 18.8 18.7 18.8 32V234c0 13.3-7.2 25.5-18.8 31.9zM749.7 109.2c-30.3 0-54.9 24.6-54.9 54.9s24.6 54.9 54.9 54.9 54.9-24.6 54.9-54.9-24.6-54.9-54.9-54.9z"  horiz-adv-x="1024" />

    
    <glyph glyph-name="customer_management_ground_fill" unicode="&#59170;" d="M895.3 613.6L529.4 813.1c-10.9 5.9-24 5.9-34.9 0L408.2 766c-9.2-5-13.1-15.7-10.2-25.8 4.5-15.1 4.7-31.9-1.7-49.7-9.5-26.5-32.8-47.4-60.4-53-31.4-6.3-60.1 5.4-78.5 26.6-6.7 7.8-17.8 10-26.8 5L177.3 640c-26.5-14.5-25.1-53 2.4-65.4l313.9-142.2c10.5-4.8 22.6-4.3 32.7 1.3L650 502.4c0 0.7-0.2 1.3-0.2 2 0 52.5 49.4 93.7 104.2 79.4 27.7-7.2 50.3-29.8 57.5-57.4 14.3-54.8-26.9-104.3-79.4-104.3-17.9 0-34.4 5.9-47.9 15.7l-117-65c-11.6-6.4-18.7-18.6-18.7-31.8v-139.7c32.5-16.3 53-53 43.3-93.5-6.8-28.4-29.6-51.9-57.8-59.2-54.8-14.3-104.3 26.9-104.3 79.4 0 32.2 18.7 59.8 45.7 73.3V336.9c0 14.3-8.4 27.3-21.4 33.2L161.4 502.7c-24.2 11-51.7-6.7-51.7-33.3V186c0-13.3 7.3-25.6 19-32l365.9-199.6c10.9-5.9 24-5.9 34.9 0L895.3 154c11.7 6.4 19 18.7 19 32V581.6c0 13.3-7.3 25.6-19 32zM308.220576 692.844569a27.4 27.4 0 1 1 20.971052 50.628598 27.4 27.4 0 1 1-20.971052-50.628598ZM512 128m-27.4 0a27.4 27.4 0 1 1 54.8 0 27.4 27.4 0 1 1-54.8 0ZM732.2 504.5m-27.4 0a27.4 27.4 0 1 1 54.8 0 27.4 27.4 0 1 1-54.8 0Z"  horiz-adv-x="1024" />

    
    <glyph glyph-name="customer_qudaoliebiao_fill" unicode="&#59171;" d="M512 640m-109.7 0a109.7 109.7 0 1 1 219.4 0 109.7 109.7 0 1 1-219.4 0ZM265.4 306.7c18.2 0 33.3 13.5 36 31.5 8.5 58.1 40.5 109.7 88.8 143.2 15 10.4 20.3 29.9 12.2 46.2-9.9 19.9-35.3 26.7-53.6 14.1-65.3-45-108.5-114.7-119.9-193.3-3.2-22 14.3-41.7 36.5-41.7zM666 114.4c-11.3 14.1-31 17.6-46.6 8.6-65.5-37.7-149.2-37.7-214.8 0-15.6 9-35.3 5.5-46.6-8.6l-0.1-0.2c-13.8-17.2-9.6-43.1 9.4-54.2 43.6-25.5 93.8-39.3 144.8-39.3s101.1 13.8 144.8 39.3c19 11.1 23.2 37 9.4 54.2l-0.3 0.2zM621.6 527.7c-8.1-16.3-2.7-35.8 12.2-46.2 48.3-33.5 80.2-85.1 88.8-143.2 2.7-18 17.7-31.5 36-31.5 22.2 0 39.7 19.7 36.5 41.7-11.4 78.6-54.6 148.3-119.9 193.4-18.3 12.5-43.7 5.7-53.6-14.2zM219.4 164.6m-109.7 0a109.7 109.7 0 1 1 219.4 0 109.7 109.7 0 1 1-219.4 0ZM804.6 164.6m-109.7 0a109.7 109.7 0 1 1 219.4 0 109.7 109.7 0 1 1-219.4 0Z"  horiz-adv-x="1024" />

    
    <glyph glyph-name="customer_part-timejob_fill" unicode="&#59172;" d="M768 273.9c-80.8 0-146.4-65.5-146.4-146.4 0-80.8 65.5-146.4 146.4-146.4 80.8 0 146.4 65.5 146.4 146.4-0.1 80.8-65.6 146.4-146.4 146.4z m70.2-198.1l-17.9-18.1c-5.7-5.8-15-5.8-20.8-0.1l-54.6 54.1c-2.8 2.8-4.4 6.5-4.4 10.4v66.4c0 8.1 6.6 14.7 14.7 14.7h25.5c8.1 0 14.7-6.6 14.7-14.7v-49.7l42.7-42.3c5.8-5.6 5.8-14.9 0.1-20.7zM473.6 423.8c104.3-20.3 196.9 48.3 215.9 143.4H746c12.1 0 22 9.8 22 22v29.1c0 12.1-9.8 22-22 22H350.2c-11.6 0-20.9-9.1-22-20.7-1.6-17.8-0.6-36.3 3.4-55.3 14.8-70.2 71.7-126.8 142-140.5zM361.4 676.6h298c8.3 0 14.1 9 10 16.3-31.4 55.5-90.7 93-159 93s-127.7-37.5-159-93c-4.2-7.3 1.6-16.3 10-16.3zM588.4 162c10.2 53.8 46.4 99.5 94.7 125.8 29.8 16.1 58.2 22.7 84.8 22.6 3.1 0 11.7-0.7 12.8-0.7h1.1c9.9 0.7 17.2 8.8 17.2 18.3 0 4-1.1 7.3-2.9 10.2-1.5 2.2-13.5 12.8-17.6 16.5-32.7 29.5-70.2 53.3-111.5 70.6-11.3 4.8-24.9 2.2-35.1-4.8-35.1-23.4-76.8-36.9-121.4-36.9-14.6 0-29.3 1.5-43.9 4.4-27.8 5.1-53.4 16.5-76.4 31.5-10.6 7.3-23.8 9.5-35.5 4.8C223 368 127.2 243.6 111.9 95.5c-2.2-21.9 14.6-41 36.6-41h421.7c14.3 0 24.5 13.5 20.8 27.4-6.6 24.9-8.1 52-2.6 80.1z"  horiz-adv-x="1024" />

    
    <glyph glyph-name="invoice_abnormal_fill" unicode="&#59173;" d="M841.34 782.82c0 22.03-17.86 39.9-39.9 39.9h-30.39c-15.23 0-29.84-8.36-35.73-22.41-9.2-21.95-30.83-37.37-56.12-37.37s-46.93 15.42-56.12 37.37c-5.89 14.05-20.5 22.4-35.73 22.4h-20.18c-15.23 0-29.84-8.36-35.73-22.4-9.2-21.95-30.83-37.37-56.12-37.37s-46.93 15.42-56.12 37.37c-5.88 14.04-20.5 22.4-35.73 22.4H364.1c-15.23 0-29.84-8.36-35.73-22.4-9.2-21.95-30.83-37.37-56.12-37.37s-46.93 15.42-56.12 37.37c-5.88 14.05-20.5 22.41-35.73 22.41h-30.65c-22.03 0-39.9-17.86-39.9-39.9v-179.25h731.47V782.82zM513.32 154.19c11.03 95.16 86.19 174.29 180.68 190.06 41.97 7.01 82.02 1.85 117.56-12.28 14.34-5.7 29.79 4.54 29.79 19.97V566.86H109.92v-585.14c0-20.11 16.46-36.57 36.57-36.57h405.45c19.16 0 28.46 22.48 15.67 36.76-40.03 44.72-61.98 105.96-54.29 172.28z m-73.8 215.23c0-12.19-9.88-22.06-22.06-22.06h-175.3c-12.19 0-22.06 9.88-22.06 22.06v29.02c0 12.19 9.88 22.06 22.06 22.06h175.3c12.19 0 22.06-9.88 22.06-22.06v-29.02zM731.15 310.86c-100.99 0-182.86-81.87-182.86-182.86s81.87-182.86 182.86-182.86S914.01 27.01 914.01 128s-81.87 182.86-182.86 182.86z m27.97-282.02c0-5.98-4.85-10.83-10.84-10.83h-33.59c-5.98 0-10.84 4.85-10.84 10.83v30.71c0 5.98 4.85 10.83 10.84 10.83h33.59c5.98 0 10.84-4.85 10.84-10.83v-30.71z m0.4 73.16c-0.36-5.83-5.2-10.38-11.04-10.38h-34.05c-5.85 0-10.69 4.55-11.04 10.38l-7.65 124.07c-0.39 6.37 4.67 11.75 11.05 11.75h49.42c6.38 0 11.44-5.38 11.04-11.75L759.52 102z"  horiz-adv-x="1024" />

    
    <glyph glyph-name="customer_source_fill" unicode="&#59174;" d="M510.3 602.4m-182.9 0a182.9 182.9 0 1 1 365.8 0 182.9 182.9 0 1 1-365.8 0ZM890.5 266.6l-159-42.6c-13.5-3.6-18-20.5-8.1-30.4l116.4-116.4c9.9-9.9 26.8-5.4 30.4 8.1l42.6 159c3.5 13.5-8.8 25.9-22.3 22.3zM705.7 178.7c-9.9 9.9-26.8 5.4-30.4-8.1l-42.6-159c-3.6-13.5 8.7-25.9 22.2-22.2l159 42.6c13.5 3.6 18 20.5 8.1 30.4L705.7 178.7zM722 259.3l59.3 15.9c26.6 7.1 36.9 40.5 17.7 60.2-37 37.9-81.3 68.6-130.8 89.6-11.7 5-25 2.4-35.6-4.7-35-23.5-77-37.3-122.4-37.3-45 0-86.8 13.6-121.7 36.9-10.6 7.1-23.9 9.6-35.6 4.6C221.5 368.1 126 244 111 95.8c-2.2-21.7 14.6-40.8 36.4-40.8h430.9c16.6 0 31.2 11.2 35.5 27.2L640 180c13.6 49.1 52.3 71.1 82 79.3z"  horiz-adv-x="1024" />

    
    <glyph glyph-name="customer_report_fill" unicode="&#59175;" d="M693.2 220.6m-91.2 0a91.2 91.2 0 1 1 182.4 0 91.2 91.2 0 1 1-182.4 0ZM819.7 125.8c-13.7 9.7-32 8-44.8-2.8-22.1-18.7-50.5-30.2-81.7-30.2-31.3 0-59.6 11.4-81.7 30.2-12.8 10.8-31.1 12.5-44.8 2.8-49.4-35-83.7-90-91-153.2-1.5-13.3 8.6-25.2 22-25.2h391c13.4 0 23.5 11.9 22 25.2-7.3 63.2-41.5 118.2-91 153.2zM868 823H153.6c-24.4 0-44.1-19.8-44.1-44.1v-787.4c0-24.4 19.8-44.1 44.1-44.1h250c18.4 0 33.9 13.6 36.2 31.8 9.6 76.9 53.5 145 120.3 185.8 8.3 5.1 11.9 14.7 9.6 24.1-7.8 32-4 64.9 11.9 93.5 22.5 40.5 65.3 65.6 111.6 65.6 26.2 0 52.8-8.1 76.9-23.4 11.6-7.4 21.2-17.4 28.5-29.1 20.8-33.5 27-71.2 18.5-105.8-2.4-9.9 1.2-19.9 9.9-25.3 17.5-10.7 33.4-23.4 47.5-37.6 14-14 37.7-4.6 37.7 15.1V778.9C912.1 803.3 892.4 823 868 823zM510.8 297.6c0-12.1-9.8-21.9-21.9-21.9H240.8c-12.1 0-21.9 9.8-21.9 21.9v29.2c0 12.1 9.8 21.9 21.9 21.9h248.1c12.1 0 21.9-9.8 21.9-21.9v-29.2z m145.9 146c0-12.1-9.8-21.9-21.9-21.9h-394c-12.1 0-21.9 9.8-21.9 21.9v29.2c0 12.1 9.8 21.9 21.9 21.9h394c12.1 0 21.9-9.8 21.9-21.9v-29.2z m146 145.9c0-12.1-9.8-21.9-21.9-21.9h-540c-12.1 0-21.9 9.8-21.9 21.9v29.2c0 12.1 9.8 21.9 21.9 21.9h540c12.1 0 21.9-9.8 21.9-21.9v-29.2z"  horiz-adv-x="1024" />

    
    <glyph glyph-name="invoice_apply_fill" unicode="&#59176;" d="M841.4 783.22c0 22.03-17.86 39.9-39.9 39.9h-30.39c-15.23 0-29.84-8.36-35.73-22.41-9.2-21.95-30.83-37.37-56.12-37.37s-46.93 15.42-56.12 37.37c-5.89 14.05-20.5 22.4-35.73 22.4h-20.18c-15.23 0-29.84-8.36-35.73-22.4-9.2-21.95-30.83-37.37-56.12-37.37s-46.93 15.42-56.12 37.37c-5.88 14.04-20.5 22.4-35.73 22.4h-19.37c-15.23 0-29.84-8.36-35.73-22.4-9.2-21.95-30.83-37.37-56.12-37.37s-46.93 15.42-56.12 37.37c-5.88 14.05-20.5 22.41-35.73 22.41h-30.65c-22.03 0-39.9-17.86-39.9-39.9v-179.25H841.4V783.22zM513.38 154.59c11.03 95.16 86.19 174.29 180.68 190.06 41.97 7.01 82.02 1.85 117.56-12.28 14.34-5.7 29.79 4.54 29.79 19.97V567.26H109.98v-585.14c0-20.11 16.46-36.57 36.57-36.57H552c19.16 0 28.46 22.48 15.67 36.76-40.03 44.72-61.98 105.96-54.29 172.28z m-73.8 215.23c0-12.19-9.88-22.06-22.06-22.06h-175.3c-12.19 0-22.06 9.88-22.06 22.06v29.02c0 12.19 9.88 22.06 22.06 22.06h175.3c12.19 0 22.06-9.88 22.06-22.06v-29.02zM731.21 311.26c-100.99 0-182.86-81.87-182.86-182.86s81.87-182.86 182.86-182.86 182.86 81.87 182.86 182.86-81.87 182.86-182.86 182.86z m91.21-195.7c0-6.05-4.91-10.96-10.96-10.96h-56.67v-56.67c0-6.05-4.91-10.96-10.96-10.96h-25.66c-6.05 0-10.96 4.91-10.96 10.96V104.6h-56.67c-6.05 0-10.96 4.91-10.96 10.96v25.66c0 6.06 4.91 10.96 10.96 10.96h56.67v56.67c0 6.06 4.91 10.96 10.96 10.96h25.66c6.05 0 10.96-4.91 10.96-10.96v-56.67h56.67c6.05 0 10.96-4.91 10.96-10.96v-25.66z"  horiz-adv-x="1024" />

    
    <glyph glyph-name="invoice_cancel_fill" unicode="&#59177;" d="M841.34 782.82c0 22.03-17.86 39.9-39.9 39.9h-30.39c-15.23 0-29.84-8.36-35.73-22.41-9.2-21.95-30.83-37.37-56.12-37.37s-46.93 15.42-56.12 37.37c-5.89 14.05-20.5 22.4-35.73 22.4h-20.18c-15.23 0-29.84-8.36-35.73-22.4-9.2-21.95-30.83-37.37-56.12-37.37s-46.93 15.42-56.12 37.37c-5.88 14.04-20.5 22.4-35.73 22.4H364.1c-15.23 0-29.84-8.36-35.73-22.4-9.2-21.95-30.83-37.37-56.12-37.37s-46.93 15.42-56.12 37.37c-5.88 14.05-20.5 22.41-35.73 22.41h-30.65c-22.03 0-39.9-17.86-39.9-39.9v-179.25h731.47V782.82zM513.32 154.19c11.03 95.16 86.19 174.29 180.68 190.06 41.97 7.01 82.02 1.85 117.56-12.28 14.34-5.7 29.79 4.54 29.79 19.97V566.86H109.92v-585.14c0-20.11 16.46-36.57 36.57-36.57h405.45c19.16 0 28.46 22.48 15.67 36.76-40.03 44.72-61.98 105.96-54.29 172.28z m-73.8 215.23c0-12.19-9.88-22.06-22.06-22.06h-175.3c-12.19 0-22.06 9.88-22.06 22.06v29.02c0 12.19 9.88 22.06 22.06 22.06h175.3c12.19 0 22.06-9.88 22.06-22.06v-29.02zM731.15 310.86c-100.99 0-182.86-81.87-182.86-182.86s81.87-182.86 182.86-182.86S914.01 27.01 914.01 128s-81.87 182.86-182.86 182.86z m72.89-188.53c0-12.02-9.74-21.76-21.76-21.76H679.51c-12.02 0-21.76 9.74-21.76 21.76v11.34c0 12.02 9.74 21.76 21.76 21.76h102.77c12.02 0 21.76-9.74 21.76-21.76v-11.34z"  horiz-adv-x="1024" />

    
    <glyph glyph-name="invoice_approval_fill" unicode="&#59178;" d="M841.65 783.1c0 22.03-17.86 39.9-39.9 39.9h-30.39c-15.23 0-29.84-8.36-35.73-22.41-9.2-21.95-30.83-37.37-56.12-37.37s-46.93 15.42-56.12 37.37c-5.89 14.05-20.5 22.4-35.73 22.4h-20.18c-15.23 0-29.84-8.36-35.73-22.4-9.2-21.95-30.83-37.37-56.12-37.37s-46.93 15.42-56.12 37.37c-5.88 14.04-20.5 22.4-35.73 22.4h-19.37c-15.23 0-29.84-8.36-35.73-22.4-9.2-21.95-30.83-37.37-56.12-37.37s-46.93 15.42-56.12 37.37C210.56 814.64 195.94 823 180.71 823h-30.65c-22.03 0-39.9-17.86-39.9-39.9v-179.25h731.47V783.1zM892.17 56.2h-68.79c-8.81 0-16.76 5.26-20.2 13.37l-16.13 38.02c-3.57 8.41-1.77 18.36 5.08 24.4 24.4 21.55 37.27 55.76 27.77 92.54-7.96 30.8-33.09 56.03-63.89 64-61.02 15.79-115.83-29.84-115.83-88.27 0-27.34 12.09-51.74 31.13-68.45 6.83-5.99 8.52-15.97 4.97-24.33l-16.08-37.9a21.933 21.933 0 0 0-20.2-13.37h-69.58c-12.14 0-21.99-9.84-21.99-21.99v-66.72c0-12.14 9.84-21.99 21.99-21.99h321.74c12.14 0 21.99 9.84 21.99 21.99v66.72c0 12.13-9.84 21.98-21.98 21.98zM615.86 92.53c9.87 0 18.29 8.04 18.29 18.29 0 4.02-1.1 7.31-3.29 10.24-0.73 1.1-1.46 1.83-2.19 2.56-16.09 21.58-25.23 48.64-25.23 76.44 0 70.58 57.78 128 128 128 11.34 0 22.67-1.46 33.65-4.39 17.19-4.39 32.92-12.44 46.45-23.41 12.44-9.88 30.35-2.19 30.35 13.53V567.22H110.45v-585.14c0-20.11 16.46-36.57 36.57-36.57h343.04c12.07 0 21.94 9.88 21.94 21.94v66.2c0 32.55 26.33 58.88 58.51 58.88h45.35z m-175.9 277.21c0-12.07-9.88-21.94-21.94-21.94H242.47c-12.07 0-21.94 9.88-21.94 21.94v28.89c0 12.43 9.87 22.31 21.94 22.31h175.54c12.07 0 21.94-9.88 21.94-22.31v-28.89z"  horiz-adv-x="1024" />

    
    <glyph glyph-name="invoice_control_fill" unicode="&#59179;" d="M931.88 255.4l-146.21 80.41c-11 6.05-24.33 6.05-35.32 0L604.14 255.4a36.655 36.655 0 0 1-18.99-32.11v-157.8c0-13.37 7.28-25.67 18.99-32.11l146.21-80.41c11-6.05 24.33-6.05 35.32 0l146.21 80.41a36.655 36.655 0 0 1 18.99 32.11v157.8c0 13.36-7.28 25.67-18.99 32.11zM768.01 89.53c-30.3 0-54.86 24.56-54.86 54.86s24.56 54.86 54.86 54.86 54.86-24.56 54.86-54.86-24.56-54.86-54.86-54.86zM840.78 782.82c0 22.03-17.86 39.9-39.9 39.9H770.5c-15.23 0-29.84-8.36-35.73-22.41-9.2-21.95-30.83-37.37-56.12-37.37s-46.93 15.42-56.12 37.37c-5.89 14.05-20.5 22.4-35.73 22.4h-20.18c-15.23 0-29.84-8.36-35.73-22.4-9.2-21.95-30.83-37.37-56.12-37.37s-46.93 15.42-56.12 37.37c-5.88 14.04-20.5 22.4-35.73 22.4h-19.37c-15.23 0-29.84-8.36-35.73-22.4-9.2-21.95-30.83-37.37-56.12-37.37s-46.93 15.42-56.12 37.37c-5.88 14.05-20.5 22.41-35.73 22.41H149.2c-22.03 0-39.9-17.86-39.9-39.9v-179.25h731.47V782.82zM614.05-13.9l-27.43 15.36c-23.4 12.8-38.03 37.3-38.03 64V223.45c0 26.7 14.63 51.2 38.03 64l146.29 80.46c10.61 5.85 22.67 9.14 35.11 9.14 12.44 0 24.5-3.29 35.11-9.14l8.78-5.12c1.1-0.37 2.19-1.1 3.29-1.46 2.19-1.1 4.75-1.46 7.31-1.46 10.24 0 18.29 8.04 18.29 18.29v188.7H109.36v-585.14c0-20.11 16.46-36.57 36.57-36.57h457.51c22.68-0.01 30.36 29.98 10.61 40.95zM438.96 369.42c0-12.19-9.88-22.06-22.06-22.06H241.6c-12.19 0-22.06 9.88-22.06 22.06v29.02c0 12.19 9.88 22.06 22.06 22.06h175.3c12.19 0 22.06-9.88 22.06-22.06v-29.02z"  horiz-adv-x="1024" />

    


  </font>
</defs>
</svg>
